<mxfile host="app.diagrams.net" agent="Mozilla/5.0 (X11; Linux x86_64) AppleWebKit/537.36 (KHTML, like Gecko) Chrome/138.0.0.0 Safari/537.36" version="28.0.7">
  <diagram name="Page-1" id="M_VT7V4kCYvcjvnsXI4k">
    <mxGraphModel dx="4626" dy="1117" grid="1" gridSize="10" guides="1" tooltips="1" connect="1" arrows="1" fold="1" page="1" pageScale="1" pageWidth="850" pageHeight="1100" math="0" shadow="0">
      <root>
        <mxCell id="0" />
        <mxCell id="1" parent="0" />
        <mxCell id="HINl4qvDrCQyflMir4P5-11" style="edgeStyle=orthogonalEdgeStyle;rounded=0;orthogonalLoop=1;jettySize=auto;html=1;exitX=0.55;exitY=0.95;exitDx=0;exitDy=0;exitPerimeter=0;entryX=0.5;entryY=0;entryDx=0;entryDy=0;" edge="1" parent="1" source="HINl4qvDrCQyflMir4P5-1" target="HINl4qvDrCQyflMir4P5-17">
          <mxGeometry relative="1" as="geometry" />
        </mxCell>
        <mxCell id="HINl4qvDrCQyflMir4P5-1" value="displayText()" style="ellipse;shape=cloud;whiteSpace=wrap;html=1;" vertex="1" parent="1">
          <mxGeometry x="40" y="40" width="200" height="80" as="geometry" />
        </mxCell>
        <mxCell id="HINl4qvDrCQyflMir4P5-2" value="Getting the text contents" style="swimlane;whiteSpace=wrap;html=1;" vertex="1" parent="1">
          <mxGeometry x="240" y="150" width="340" height="210" as="geometry" />
        </mxCell>
        <mxCell id="HINl4qvDrCQyflMir4P5-4" style="edgeStyle=orthogonalEdgeStyle;rounded=0;orthogonalLoop=1;jettySize=auto;html=1;exitX=1;exitY=0.5;exitDx=0;exitDy=0;" edge="1" parent="HINl4qvDrCQyflMir4P5-2" source="HINl4qvDrCQyflMir4P5-3">
          <mxGeometry relative="1" as="geometry">
            <mxPoint x="222.5" y="80" as="targetPoint" />
          </mxGeometry>
        </mxCell>
        <mxCell id="HINl4qvDrCQyflMir4P5-5" value="Yes" style="edgeLabel;html=1;align=center;verticalAlign=middle;resizable=0;points=[];" vertex="1" connectable="0" parent="HINl4qvDrCQyflMir4P5-4">
          <mxGeometry x="0.0062" relative="1" as="geometry">
            <mxPoint y="1" as="offset" />
          </mxGeometry>
        </mxCell>
        <mxCell id="HINl4qvDrCQyflMir4P5-7" style="edgeStyle=orthogonalEdgeStyle;rounded=0;orthogonalLoop=1;jettySize=auto;html=1;exitX=0.5;exitY=1;exitDx=0;exitDy=0;entryX=0;entryY=0.5;entryDx=0;entryDy=0;" edge="1" parent="HINl4qvDrCQyflMir4P5-2" source="HINl4qvDrCQyflMir4P5-3" target="HINl4qvDrCQyflMir4P5-10">
          <mxGeometry relative="1" as="geometry">
            <mxPoint x="82.5" y="170" as="targetPoint" />
            <Array as="points">
              <mxPoint x="82.5" y="165" />
            </Array>
          </mxGeometry>
        </mxCell>
        <mxCell id="HINl4qvDrCQyflMir4P5-8" value="No" style="edgeLabel;html=1;align=center;verticalAlign=middle;resizable=0;points=[];" vertex="1" connectable="0" parent="HINl4qvDrCQyflMir4P5-7">
          <mxGeometry x="-0.2397" y="-1" relative="1" as="geometry">
            <mxPoint as="offset" />
          </mxGeometry>
        </mxCell>
        <mxCell id="HINl4qvDrCQyflMir4P5-3" value="m_textContents empty?" style="rounded=0;whiteSpace=wrap;html=1;" vertex="1" parent="HINl4qvDrCQyflMir4P5-2">
          <mxGeometry x="22.5" y="50" width="120" height="60" as="geometry" />
        </mxCell>
        <mxCell id="HINl4qvDrCQyflMir4P5-6" value="Placeholder&lt;div&gt;Text&lt;/div&gt;" style="shape=step;perimeter=stepPerimeter;whiteSpace=wrap;html=1;fixedSize=1;" vertex="1" parent="HINl4qvDrCQyflMir4P5-2">
          <mxGeometry x="202.5" y="55" width="115" height="50" as="geometry" />
        </mxCell>
        <mxCell id="HINl4qvDrCQyflMir4P5-10" value="m_textContents" style="shape=step;perimeter=stepPerimeter;whiteSpace=wrap;html=1;fixedSize=1;" vertex="1" parent="HINl4qvDrCQyflMir4P5-2">
          <mxGeometry x="112.5" y="140" width="135" height="50" as="geometry" />
        </mxCell>
        <mxCell id="HINl4qvDrCQyflMir4P5-13" value="Resizing Text" style="swimlane;whiteSpace=wrap;html=1;" vertex="1" parent="1">
          <mxGeometry x="240" y="390" width="360" height="200" as="geometry" />
        </mxCell>
        <mxCell id="HINl4qvDrCQyflMir4P5-16" value="text out of bounds?" style="rounded=0;whiteSpace=wrap;html=1;" vertex="1" parent="HINl4qvDrCQyflMir4P5-13">
          <mxGeometry x="23" y="40" width="120" height="60" as="geometry" />
        </mxCell>
        <mxCell id="HINl4qvDrCQyflMir4P5-15" value="Wrapping Text" style="swimlane;whiteSpace=wrap;html=1;" vertex="1" parent="1">
          <mxGeometry x="230" y="740" width="200" height="200" as="geometry" />
        </mxCell>
        <mxCell id="HINl4qvDrCQyflMir4P5-18" style="edgeStyle=orthogonalEdgeStyle;rounded=0;orthogonalLoop=1;jettySize=auto;html=1;exitX=1;exitY=0.5;exitDx=0;exitDy=0;entryX=0;entryY=0.5;entryDx=0;entryDy=0;" edge="1" parent="1" source="HINl4qvDrCQyflMir4P5-17" target="HINl4qvDrCQyflMir4P5-2">
          <mxGeometry relative="1" as="geometry" />
        </mxCell>
        <mxCell id="HINl4qvDrCQyflMir4P5-17" value="Center the text in the textbox" style="rounded=0;whiteSpace=wrap;html=1;" vertex="1" parent="1">
          <mxGeometry x="90" y="225" width="120" height="60" as="geometry" />
        </mxCell>
        <mxCell id="HINl4qvDrCQyflMir4P5-19" style="edgeStyle=orthogonalEdgeStyle;rounded=0;orthogonalLoop=1;jettySize=auto;html=1;exitX=0.5;exitY=1;exitDx=0;exitDy=0;entryX=0.475;entryY=-0.01;entryDx=0;entryDy=0;entryPerimeter=0;" edge="1" parent="1" source="HINl4qvDrCQyflMir4P5-2" target="HINl4qvDrCQyflMir4P5-13">
          <mxGeometry relative="1" as="geometry" />
        </mxCell>
      </root>
    </mxGraphModel>
  </diagram>
</mxfile>
